<svg xmlns="http://www.w3.org/2000/svg" width="49.644" height="49.644" viewBox="0 0 49.644 49.644"><g transform="translate(0 -0.001)"><circle cx="24.822" cy="24.822" r="24.822" transform="translate(0 0.001)" fill="#bfc4ce"/><path d="M13.994,22.358c-1.877-.145-2.665-1.076-4.137-1.969-.809,4.244-1.8,8.312-4.725,10.437-.9-6.414,1.327-11.232,2.363-16.346C5.729,11.507,7.708,5.522,11.433,7c4.585,1.813-3.97,11.056,1.773,12.211,6,1.205,8.444-10.4,4.725-14.18C12.559-.424,2.293,4.9,3.556,12.708c.308,1.908,2.279,2.487.788,5.12C.9,17.066-.121,14.355.011,10.739.224,4.821,5.329.677,10.449.1,16.925-.621,23,2.482,23.842,8.573c.944,6.875-2.923,14.32-9.847,13.785Z" transform="translate(12.832 10.882)" fill="#fff"/></g></svg>