<svg xmlns="http://www.w3.org/2000/svg" width="23" height="23" viewBox="0 0 23 23"><g transform="translate(0)"><g transform="translate(0)"><path d="M5.907,21.2H2.727a.913.913,0,0,1-.719-.342.939.939,0,0,1-.19-.787,9.926,9.926,0,0,1,9.454-7.86c.076,0,.152,0,.229,0s.154,0,.231,0a9.84,9.84,0,0,1,3.245.625.9.9,0,0,0,.632-1.682q-.223-.084-.449-.158a6.109,6.109,0,1,0-7.313,0A11.683,11.683,0,0,0,.059,19.708,2.73,2.73,0,0,0,2.727,23H5.907a.9.9,0,1,0,0-1.8ZM7.188,6.109a4.312,4.312,0,1,1,4.522,4.307l-.21,0-.211,0A4.318,4.318,0,0,1,7.188,6.109Z" transform="translate(0)" fill="#deb764"/><path d="M161.753,314.42a2.421,2.421,0,0,0-2.209-1.42h-2.808a2.379,2.379,0,0,0-2.247,1.519c-.047.123-.1.278-.165.458h-5.882a.9.9,0,0,0-.645.273l-1.543,1.59a.9.9,0,0,0,0,1.256l1.572,1.6a.9.9,0,0,0,.641.269h2.92a.9.9,0,1,0,0-1.8h-2.543l-.693-.705.667-.687H155a.9.9,0,0,0,.873-.685,7.426,7.426,0,0,1,.3-.925.589.589,0,0,1,.572-.367h2.8a.613.613,0,0,1,.571.356,5.8,5.8,0,0,1,.531,2.29,5.973,5.973,0,0,1-.527,2.331.613.613,0,0,1-.564.368h-2.837a.639.639,0,0,1-.579-.4,5.968,5.968,0,0,1-.278-.889.9.9,0,1,0-1.748.418,7.732,7.732,0,0,0,.365,1.156,2.424,2.424,0,0,0,2.238,1.51h2.841a2.409,2.409,0,0,0,2.209-1.447,7.777,7.777,0,0,0,.677-3.054A7.607,7.607,0,0,0,161.753,314.42Z" transform="translate(-139.441 -298.939)" fill="#deb764"/><ellipse cx="1" cy="1.5" rx="1" ry="1.5" transform="translate(18 17)" fill="#deb764"/></g></g></svg>