<svg xmlns="http://www.w3.org/2000/svg" width="150.197" height="18.241" viewBox="0 0 150.197 18.241"><path d="M12.019,13.974H9.672L7.681,7.894l-1.991,6.08H3.307L0,4.3H2.631l1.991,6.472L6.614,4.3H8.747l1.991,6.472L12.73,4.3h2.631l-3.342,9.672ZM25.744,9.885h-7.5a2.535,2.535,0,0,0,2.809,2.2A2.513,2.513,0,0,0,23.4,10.81l2.276.676a5.016,5.016,0,0,1-4.658,2.738,4.92,4.92,0,0,1-5.263-5.085A4.883,4.883,0,0,1,20.8,4.054a4.72,4.72,0,0,1,4.978,4.978,2.3,2.3,0,0,1-.036.853ZM20.8,6.187a2.5,2.5,0,0,0-2.56,2.133h5.085A2.316,2.316,0,0,0,20.8,6.187Zm15.5,7.787V11.983a4.47,4.47,0,0,1-4.089,2.24A4.787,4.787,0,0,1,27.38,9.245a4.787,4.787,0,0,1,4.836-4.978,4.583,4.583,0,0,1,4.089,2.2V4.48h.925v9.458H36.3ZM32.322,5.156A3.9,3.9,0,0,0,28.34,9.245a3.915,3.915,0,0,0,3.982,4.089A4.03,4.03,0,0,0,36.34,9.245a4.052,4.052,0,0,0-4.018-4.089Zm8.925,4.231v4.587h-.925V4.516h.925V6.258a3.144,3.144,0,0,1,3.52-1.885v.889c-2.027-.249-3.52.925-3.52,4.125Zm13.619.178H46.439A3.959,3.959,0,0,0,53.906,11.2l.889.284a4.934,4.934,0,0,1-9.352-2.24A4.7,4.7,0,0,1,50.208,4.3,4.43,4.43,0,0,1,54.866,9a1.527,1.527,0,0,1,0,.569ZM50.243,5.156a3.765,3.765,0,0,0-3.8,3.556l7.538-.036a3.557,3.557,0,0,0-3.734-3.52Zm19.664,8.818V8.747c0-1.458-.533-2.382-1.849-2.382-1.351,0-2.027,1-2.027,2.667v4.943H63.506V8.747c0-1.422-.533-2.382-1.813-2.382-1.351,0-2.1,1.031-2.1,2.738v4.836H57.07V4.3H59.6V5.44a3.566,3.566,0,0,1,2.88-1.422,3.26,3.26,0,0,1,2.916,1.458,3.978,3.978,0,0,1,3.271-1.458c2.311,0,3.8,1.493,3.8,4.2v5.76Zm12.2,0V12.8a3.788,3.788,0,0,1-3.129,1.458,4.844,4.844,0,0,1-4.765-5.085,4.823,4.823,0,0,1,4.765-5.085A3.967,3.967,0,0,1,82.1,5.511V4.338h2.525V14.01H82.1ZM79.436,6.294a2.653,2.653,0,0,0-2.7,2.845,2.7,2.7,0,0,0,2.7,2.88,2.731,2.731,0,0,0,2.738-2.88,2.721,2.721,0,0,0-2.738-2.845ZM89.642,9.778v4.2H87.117V4.3h2.525V5.725a2.886,2.886,0,0,1,3.2-1.565V6.543c-2.062-.32-3.2.6-3.2,3.236Zm14.188,4.2h-2.88L98.14,10.241,97,11.485v2.453H94.477V.036H97V8.321l3.485-3.982h2.951L99.74,8.5l4.089,5.476Zm10.134-4.089h-7.5a2.851,2.851,0,0,0,5.156.925l2.276.676a5.016,5.016,0,0,1-4.658,2.738,4.92,4.92,0,0,1-5.263-5.085,4.883,4.883,0,0,1,5.049-5.085A4.72,4.72,0,0,1,114,9.032a2.3,2.3,0,0,1-.036.853Zm-4.943-3.7a2.5,2.5,0,0,0-2.56,2.133h5.085a2.316,2.316,0,0,0-2.525-2.133Zm9.814,4.48a1.063,1.063,0,0,0,1.173,1.209,2.167,2.167,0,0,0,1.138-.284l.6,2.027a5.5,5.5,0,0,1-2.24.462c-2.2,0-3.236-1.387-3.236-3.449V6.507h-1.636V4.3h1.636V1.173H118.8V4.3h2.845v2.2H118.8v4.16Zm5.974-7.716a1.458,1.458,0,0,1-1.493-1.493A1.472,1.472,0,0,1,124.808,0,1.45,1.45,0,0,1,126.3,1.458a1.458,1.458,0,0,1-1.493,1.493Zm1.245,11.023h-2.525V4.3h2.525v9.672Zm9.423,0V8.783c0-1.458-.676-2.418-2.062-2.418-1.422,0-2.347,1.1-2.347,2.809v4.765h-2.525V4.3h2.525V5.511A3.861,3.861,0,0,1,134.2,4.018c2.525,0,3.8,1.707,3.8,4.267v5.654h-2.525Zm9.707,4.267a4.984,4.984,0,0,1-4.658-2.525l2.2-.782a2.776,2.776,0,0,0,2.525,1.245,2.323,2.323,0,0,0,2.418-2.525V12.445a3.79,3.79,0,0,1-3.058,1.387,4.732,4.732,0,0,1-4.765-4.907,4.631,4.631,0,0,1,4.765-4.907A3.79,3.79,0,0,1,147.672,5.4V4.267H150.2v9.316c-.036,2.738-1.991,4.658-5.014,4.658Zm-.142-11.947a2.539,2.539,0,0,0-2.7,2.631,2.685,2.685,0,0,0,5.369,0,2.569,2.569,0,0,0-2.667-2.631Z" fill="#353f49" opacity="0.6"/></svg>