<?xml version="1.0" encoding="utf-8"?>
<!-- Generator: Adobe Illustrator 25.0.0, SVG Export Plug-In . SVG Version: 6.00 Build 0)  -->
<svg version="1.1" id="Layer_1" xmlns="http://www.w3.org/2000/svg" xmlns:xlink="http://www.w3.org/1999/xlink" x="0px" y="0px"
	 viewBox="0 0 997 310" style="enable-background:new 0 0 997 310;" xml:space="preserve">
<style type="text/css">
	.st0{fill:#A08959;}
	.st1{fill:#2E3D47;}
	.st2{fill:#2C3A44;}
</style>
<g transform="scale(1.137) translate(-60 0 )">
	<g>
		<path class="st1" d="M59.38,249.44l12.88-28.51c0.13-0.25,0.34-0.46,0.72-0.46h0.42c0.38,0,0.59,0.21,0.72,0.46l12.8,28.51
			c0.25,0.55-0.09,1.1-0.72,1.1H84.5c-0.38,0-0.64-0.25-0.72-0.47l-3.13-6.99H65.61l-3.09,6.99c-0.09,0.21-0.34,0.47-0.72,0.47H60.1
			C59.47,250.54,59.13,249.99,59.38,249.44 M79.5,240.46c-2.07-4.62-4.11-9.28-6.19-13.89h-0.34l-6.19,13.89H79.5z"/>
		<path class="st1" d="M115,221.69c0-0.42,0.34-0.8,0.81-0.8h16.69c0.47,0,0.8,0.38,0.8,0.8v1.23c0,0.43-0.34,0.81-0.8,0.81h-14.23
			v10.34h12.16c0.42,0,0.8,0.38,0.8,0.8v1.23c0,0.47-0.38,0.81-0.8,0.81h-12.16v10.8h14.23c0.47,0,0.8,0.38,0.8,0.81v1.23
			c0,0.42-0.34,0.8-0.8,0.8h-16.69c-0.47,0-0.81-0.38-0.81-0.8V221.69z"/>
		<path class="st1" d="M145.85,221.69c0-0.42,0.38-0.8,0.8-0.8h1.61c0.47,0,0.8,0.38,0.8,0.8v17.83c0,4.83,3.01,8.43,7.97,8.43
			c5,0,8.05-3.52,8.05-8.35v-17.92c0-0.42,0.34-0.8,0.8-0.8h1.61c0.42,0,0.8,0.38,0.8,0.8v18.09c0,6.44-4.57,11.19-11.27,11.19
			c-6.65,0-11.19-4.74-11.19-11.19V221.69z"/>
		<path class="st1" d="M182.89,221.69c0-0.42,0.34-0.8,0.81-0.8h10.97c5.08,0,9.23,3.98,9.23,9.02c0,3.9-2.58,7.16-6.27,8.64
			l5.8,10.76c0.3,0.55,0,1.23-0.72,1.23h-2.03c-0.51,0-0.72-0.21-0.93-0.64l-5.51-10.97h-8.09v10.8c0,0.42-0.38,0.8-0.8,0.8h-1.65
			c-0.47,0-0.81-0.38-0.81-0.8V221.69z M194.45,236.14c3.26,0,6.1-2.71,6.1-6.19c0-3.22-2.84-5.97-6.1-5.97h-8.22v12.16H194.45z"/>
		<path class="st1" d="M230.51,220.46c8.47,0,15.25,6.82,15.25,15.29c0,8.47-6.78,15.21-15.25,15.21c-8.47,0-15.21-6.74-15.21-15.21
			C215.3,227.28,222.04,220.46,230.51,220.46 M230.51,248c6.73,0,12.28-5.51,12.28-12.24c0-6.73-5.55-12.33-12.28-12.33
			c-6.73,0-12.24,5.59-12.24,12.33C218.27,242.49,223.78,248,230.51,248"/>
		<path class="st1" d="M258.77,221.69c0-0.42,0.34-0.8,0.81-0.8h9.36c5.21,0,9.49,4.23,9.49,9.36c0,5.25-4.28,9.53-9.45,9.53h-6.99
			v9.96c0,0.42-0.38,0.8-0.8,0.8h-1.61c-0.47,0-0.81-0.38-0.81-0.8V221.69z M268.73,236.65c3.47,0,6.43-2.58,6.43-6.48
			c0-3.77-2.96-6.06-6.43-6.06h-6.74v12.54H268.73z"/>
		<path class="st1" d="M290.64,221.69c0-0.42,0.34-0.8,0.81-0.8h16.69c0.47,0,0.8,0.38,0.8,0.8v1.23c0,0.43-0.34,0.81-0.8,0.81
			h-14.23v10.34h12.16c0.42,0,0.8,0.38,0.8,0.8v1.23c0,0.47-0.38,0.81-0.8,0.81h-12.16v10.8h14.23c0.47,0,0.8,0.38,0.8,0.81v1.23
			c0,0.42-0.34,0.8-0.8,0.8h-16.69c-0.47,0-0.81-0.38-0.81-0.8V221.69z"/>
		<path class="st1" d="M318.02,249.44l12.88-28.51c0.13-0.25,0.34-0.46,0.72-0.46h0.42c0.38,0,0.6,0.21,0.72,0.46l12.8,28.51
			c0.26,0.55-0.09,1.1-0.72,1.1h-1.69c-0.38,0-0.64-0.25-0.72-0.47l-3.13-6.99h-15.04l-3.09,6.99c-0.09,0.21-0.34,0.47-0.72,0.47
			h-1.69C318.1,250.54,317.76,249.99,318.02,249.44 M338.14,240.46c-2.07-4.62-4.11-9.28-6.19-13.89h-0.34l-6.18,13.89H338.14z"/>
		<path class="st1" d="M356.71,221.23c0-0.42,0.38-0.76,0.81-0.76h0.64c0.29,0,0.51,0.08,0.68,0.34l18.85,23.47h0.09v-22.58
			c0-0.42,0.34-0.8,0.8-0.8h1.48c0.43,0,0.81,0.38,0.81,0.8v28.51c0,0.42-0.38,0.76-0.81,0.76h-0.34c-0.3,0-0.51-0.09-0.68-0.34
			l-19.19-23.93h-0.05v23.05c0,0.42-0.34,0.8-0.8,0.8h-1.48c-0.43,0-0.81-0.38-0.81-0.8V221.23z"/>
		<path class="st1" d="M412.66,221.69c0-0.42,0.34-0.8,0.8-0.8h9.36c5.21,0,9.49,4.23,9.49,9.36c0,5.25-4.28,9.53-9.45,9.53h-6.99
			v9.96c0,0.42-0.38,0.8-0.8,0.8h-1.61c-0.47,0-0.8-0.38-0.8-0.8V221.69z M422.62,236.65c3.47,0,6.43-2.58,6.43-6.48
			c0-3.77-2.96-6.06-6.43-6.06h-6.74v12.54H422.62z"/>
		<path class="st1" d="M438.81,249.44l12.88-28.51c0.13-0.25,0.34-0.46,0.72-0.46h0.42c0.38,0,0.59,0.21,0.72,0.46l12.8,28.51
			c0.25,0.55-0.09,1.1-0.72,1.1h-1.69c-0.38,0-0.64-0.25-0.72-0.47l-3.13-6.99h-15.04l-3.09,6.99c-0.09,0.21-0.34,0.47-0.72,0.47
			h-1.69C438.9,250.54,438.56,249.99,438.81,249.44 M458.93,240.46c-2.07-4.62-4.11-9.28-6.19-13.89h-0.34l-6.19,13.89H458.93z"/>
		<path class="st1" d="M481.56,236.27l-10.21-14.15c-0.34-0.55,0-1.23,0.68-1.23h1.99c0.29,0,0.55,0.21,0.68,0.38l8.56,11.82
			l8.56-11.82c0.13-0.17,0.38-0.38,0.68-0.38h1.99c0.68,0,1.02,0.68,0.68,1.23l-10.34,14.11v13.51c0,0.42-0.38,0.8-0.81,0.8h-1.65
			c-0.47,0-0.81-0.38-0.81-0.8V236.27z"/>
		<path class="st1" d="M508.36,221.06c0.09-0.34,0.43-0.59,0.76-0.59h0.68c0.29,0,0.63,0.21,0.72,0.46l8.39,23.34h0.21l8.26-23.34
			c0.08-0.25,0.42-0.46,0.72-0.46h0.68c0.34,0,0.68,0.25,0.76,0.59l5.47,28.47c0.13,0.59-0.13,1.02-0.76,1.02h-1.69
			c-0.34,0-0.68-0.3-0.76-0.59l-3.77-21.82h-0.17l-7.79,22.37c-0.09,0.25-0.47,0.47-0.72,0.47h-0.76c-0.25,0-0.63-0.21-0.72-0.47
			l-7.88-22.37h-0.17l-3.69,21.82c-0.04,0.29-0.42,0.59-0.76,0.59h-1.69c-0.64,0-0.89-0.43-0.76-1.02L508.36,221.06z"/>
		<path class="st1" d="M548.01,221.69c0-0.42,0.34-0.8,0.81-0.8h16.69c0.47,0,0.8,0.38,0.8,0.8v1.23c0,0.43-0.34,0.81-0.8,0.81
			h-14.23v10.34h12.16c0.42,0,0.8,0.38,0.8,0.8v1.23c0,0.47-0.38,0.81-0.8,0.81h-12.16v10.8h14.23c0.47,0,0.8,0.38,0.8,0.81v1.23
			c0,0.42-0.34,0.8-0.8,0.8h-16.69c-0.47,0-0.81-0.38-0.81-0.8V221.69z"/>
		<path class="st1" d="M579.16,221.23c0-0.42,0.38-0.76,0.81-0.76h0.64c0.29,0,0.51,0.08,0.68,0.34l18.85,23.47h0.09v-22.58
			c0-0.42,0.34-0.8,0.8-0.8h1.48c0.43,0,0.81,0.38,0.81,0.8v28.51c0,0.42-0.38,0.76-0.81,0.76h-0.34c-0.3,0-0.51-0.09-0.68-0.34
			l-19.19-23.93h-0.05v23.05c0,0.42-0.34,0.8-0.8,0.8h-1.48c-0.43,0-0.81-0.38-0.81-0.8V221.23z"/>
		<path class="st1" d="M623.4,223.73h-7.37c-0.47,0-0.8-0.38-0.8-0.81v-1.23c0-0.42,0.34-0.8,0.8-0.8h17.96c0.46,0,0.8,0.38,0.8,0.8
			v1.23c0,0.43-0.34,0.81-0.8,0.81h-7.37v26.01c0,0.42-0.38,0.8-0.8,0.8h-1.61c-0.42,0-0.8-0.38-0.8-0.8V223.73z"/>
		<path class="st1" d="M645.06,246.09l0.64-0.8c0.42-0.55,0.76-0.76,1.35-0.25c0.29,0.25,3.51,3.09,7.29,3.09
			c3.43,0,5.68-2.16,5.68-4.83c0-2.92-2.54-4.62-7.42-6.69c-4.66-1.99-7.46-3.77-7.46-8.6c0-2.88,2.29-7.54,9.02-7.54
			c4.15,0,7.24,2.16,7.24,2.16c0.25,0.12,0.72,0.63,0.25,1.44l-0.42,0.72c-0.34,0.59-0.8,0.59-1.48,0.21
			c-1.78-1.06-3.27-1.69-5.64-1.69c-4.49,0-5.84,2.88-5.84,4.66c0,3.01,2.16,4.32,5.72,5.8c5.72,2.33,9.41,4.49,9.41,9.41
			c0,4.4-4.2,7.79-9.15,7.79c-5,0-8.39-2.93-8.94-3.43C644.97,247.24,644.46,246.86,645.06,246.09"/>
		<path class="st1" d="M706.36,220.46c4.28,0,7.37,1.48,10.25,3.94c0.34,0.34,0.38,0.85,0.04,1.19l-1.15,1.14
			c-0.34,0.43-0.68,0.38-1.1-0.04c-2.2-1.91-5-3.18-8.09-3.18c-6.69,0-11.82,5.64-11.82,12.2c0,6.52,5.12,12.16,11.82,12.16
			c3.69,0,5.85-1.27,8.09-3.18c0.42-0.34,0.76-0.29,1.1,0.04l0.98,0.97c0.34,0.25,0.25,0.85-0.04,1.14
			c-2.8,2.54-6.31,4.11-10.08,4.11c-8.47,0-15.3-6.74-15.3-15.21C691.06,227.28,697.88,220.46,706.36,220.46"/>
		<path class="st1" d="M742.33,220.46c8.47,0,15.25,6.82,15.25,15.29c0,8.47-6.78,15.21-15.25,15.21c-8.47,0-15.21-6.74-15.21-15.21
			C727.12,227.28,733.86,220.46,742.33,220.46 M742.33,248c6.73,0,12.28-5.51,12.28-12.24c0-6.73-5.55-12.33-12.28-12.33
			s-12.24,5.59-12.24,12.33C730.09,242.49,735.6,248,742.33,248"/>
		<path class="st1" d="M773.98,221.06c0.09-0.34,0.43-0.59,0.76-0.59h0.68c0.29,0,0.63,0.21,0.72,0.46l8.39,23.34h0.22l8.26-23.34
			c0.08-0.25,0.42-0.46,0.72-0.46h0.68c0.34,0,0.68,0.25,0.76,0.59l5.47,28.47c0.13,0.59-0.13,1.02-0.76,1.02h-1.69
			c-0.34,0-0.68-0.3-0.76-0.59l-3.77-21.82h-0.17l-7.79,22.37c-0.09,0.25-0.47,0.47-0.72,0.47h-0.76c-0.25,0-0.63-0.21-0.72-0.47
			l-7.88-22.37h-0.17l-3.69,21.82c-0.04,0.29-0.42,0.59-0.76,0.59h-1.69c-0.64,0-0.89-0.43-0.76-1.02L773.98,221.06z"/>
		<path class="st1" d="M813.63,221.69c0-0.42,0.34-0.8,0.81-0.8h9.36c5.21,0,9.49,4.23,9.49,9.36c0,5.25-4.28,9.53-9.45,9.53h-6.99
			v9.96c0,0.42-0.38,0.8-0.8,0.8h-1.61c-0.47,0-0.81-0.38-0.81-0.8V221.69z M823.59,236.65c3.47,0,6.43-2.58,6.43-6.48
			c0-3.77-2.96-6.06-6.43-6.06h-6.74v12.54H823.59z"/>
		<path class="st1" d="M839.79,249.44l12.88-28.51c0.13-0.25,0.34-0.46,0.72-0.46h0.42c0.38,0,0.6,0.21,0.72,0.46l12.8,28.51
			c0.26,0.55-0.09,1.1-0.72,1.1h-1.69c-0.38,0-0.64-0.25-0.72-0.47l-3.13-6.99h-15.04l-3.09,6.99c-0.09,0.21-0.34,0.47-0.72,0.47
			h-1.69C839.87,250.54,839.53,249.99,839.79,249.44 M859.91,240.46c-2.08-4.62-4.11-9.28-6.19-13.89h-0.34l-6.18,13.89H859.91z"/>
		<path class="st1" d="M878.48,221.23c0-0.42,0.38-0.76,0.8-0.76h0.64c0.29,0,0.51,0.08,0.68,0.34l18.85,23.47h0.08v-22.58
			c0-0.42,0.34-0.8,0.8-0.8h1.48c0.43,0,0.81,0.38,0.81,0.8v28.51c0,0.42-0.38,0.76-0.81,0.76h-0.33c-0.3,0-0.51-0.09-0.68-0.34
			l-19.19-23.93h-0.05v23.05c0,0.42-0.34,0.8-0.8,0.8h-1.48c-0.43,0-0.8-0.38-0.8-0.8V221.23z"/>
		<path class="st1" d="M923.93,236.27l-10.21-14.15c-0.33-0.55,0-1.23,0.68-1.23h1.99c0.3,0,0.55,0.21,0.68,0.38l8.56,11.82
			l8.56-11.82c0.13-0.17,0.38-0.38,0.68-0.38h1.99c0.68,0,1.02,0.68,0.68,1.23l-10.34,14.11v13.51c0,0.42-0.38,0.8-0.81,0.8h-1.65
			c-0.47,0-0.81-0.38-0.81-0.8V236.27z"/>
	</g>
	<rect x="59.3" y="161.61" class="st1" width="27.43" height="23.73"/>
	<g>
		<path class="st1" d="M197.7,60.67h23.23L270,185.33h-26.33l-10.47-27.76h-48.42l-10.48,27.76h-25.66L197.7,60.67z M224.2,133.52
			l-15.21-40.14l-15.21,40.14H224.2z"/>
		<polygon class="st1" points="295.66,136.18 251.34,60.65 281,60.65 308.51,110.71 336.52,60.65 365.36,60.65 321.03,135.64 
			321.03,185.34 295.66,185.34 		"/>
		<path class="st1" d="M368.65,166.54l14.88-19.27c10.3,9.19,21.1,15.03,34.18,15.03c10.31,0,16.52-4.42,16.52-11.67v-0.35
			c0-6.9-3.93-10.43-23.06-15.74c-23.06-6.37-37.95-13.26-37.95-37.84v-0.35c0-22.46,16.68-37.31,40.07-37.31
			c16.68,0,30.91,5.66,42.53,15.74l-13.08,20.51c-10.14-7.6-20.12-12.2-29.77-12.2s-14.72,4.77-14.72,10.79v0.35
			c0,8.13,4.91,10.79,24.7,16.27c23.23,6.54,36.31,15.56,36.31,37.13v0.35c0,24.58-17.34,38.37-42.04,38.37
			C399.89,186.35,382.39,179.81,368.65,166.54"/>
		<polygon class="st1" points="505.64,85.95 470.55,85.95 470.55,60.66 566.11,60.66 566.11,85.95 531.02,85.95 531.02,185.34 
			505.64,185.34 		"/>
		<path class="st1" d="M583.99,60.65h52.73c14.66,0,26.03,4.45,33.61,12.65c6.43,6.95,9.89,16.74,9.89,28.5v0.36
			c0,20.13-10.05,32.78-24.71,38.65l28.17,44.53h-29.66l-24.71-39.9h-19.94v39.9h-25.37V60.65z M635.07,121.21
			c12.36,0,19.44-7.13,19.44-17.63v-0.36c0-11.76-7.58-17.81-19.94-17.81h-25.21v35.8H635.07z"/>
		<path class="st1" d="M742.21,60.65h23.23l49.08,124.69h-26.34l-10.47-27.77h-48.43l-10.47,27.77h-25.68L742.21,60.65z
			 M768.71,133.51L753.5,93.36l-15.21,40.15H768.71z"/>
		<path class="st1" d="M113.11,60.64H59.3v84.98h53.81c23.47,0,42.49-19.02,42.49-42.49C155.6,79.67,136.58,60.64,113.11,60.64"/>
		<g>
			<path class="st1" d="M936.14,60.65l-39.01,60.91l40.57,63.76h-32.19l-24.97-42.75l-25.17,42.75h-31.41l40.38-63.41l-38.62-61.27
				h32.19l23.21,40.43l23.6-40.43H936.14z"/>
		</g>
	</g>
</g>
</svg>
