<svg xmlns="http://www.w3.org/2000/svg" xmlns:xlink="http://www.w3.org/1999/xlink" width="233.926" height="156.613" viewBox="0 0 233.926 156.613"><defs><filter id="a" x="0" y="0" width="233.926" height="156.613" filterUnits="userSpaceOnUse"><feOffset dy="20" input="SourceAlpha"/><feGaussianBlur stdDeviation="8.5" result="b"/><feFlood flood-opacity="0.161"/><feComposite operator="in" in2="b"/><feComposite in="SourceGraphic"/></filter><clipPath id="c"><path d="M914.468,918.68l19.219-11.169,12.549,7.245-19.219,11.169Z" transform="translate(-914.468 -907.511)" fill="none"/></clipPath></defs><g transform="translate(24.595 5.5)"><g transform="translate(0)"><path d="M739.441,957.845l109.2-63.048a3.412,3.412,0,0,1,3.089,0l69.357,40.043a3.416,3.416,0,0,1,1.545,2.675v.615a3.411,3.411,0,0,1-1.545,2.675l-109.2,63.048a3.383,3.383,0,0,1-3.083-.012l-69.369-40.706a3.041,3.041,0,0,1,.006-5.291Z" transform="translate(-737.896 -894.428)" fill="#c79b3f"/><g opacity="0.2"><path d="M739.441,957.845l109.2-63.048a3.412,3.412,0,0,1,3.089,0l69.357,40.043a3.416,3.416,0,0,1,1.545,2.675v.615a3.411,3.411,0,0,1-1.545,2.675l-109.2,63.048a3.383,3.383,0,0,1-3.083-.012l-69.369-40.706a3.041,3.041,0,0,1,.006-5.291Z" transform="translate(-737.896 -894.428)" fill="#c79b3f"/></g></g><g transform="translate(0.001 47.578)"><path d="M737.9,1004.363a3.409,3.409,0,0,0,1.538,2.651L808.8,1047.72a5.665,5.665,0,0,0,1.538.377v-12.022l-3.622-48.1-39.845-2.091-27.433,15.839A3.378,3.378,0,0,0,737.9,1004.363Z" transform="translate(-737.897 -985.884)" fill="#00dfbf"/><line x2="69.369" y2="40.706" transform="translate(1.538 21.13)" fill="#00dfbf"/></g><g transform="translate(0.001 47.578)"><path d="M737.9,1004.363a3.409,3.409,0,0,0,1.538,2.651L808.8,1047.72a5.665,5.665,0,0,0,1.538.377v-12.022l-3.622-48.1-39.845-2.091-27.433,15.839A3.378,3.378,0,0,0,737.9,1004.363Z" transform="translate(-737.897 -985.884)" fill="#c79b3f"/><line x2="69.369" y2="40.706" transform="translate(1.538 21.13)" fill="#0053cc"/><g opacity="0.2"><path d="M737.9,1004.363a3.409,3.409,0,0,0,1.538,2.651L808.8,1047.72a5.665,5.665,0,0,0,1.538.377v-12.022l-3.622-48.1-39.845-2.091-27.433,15.839A3.378,3.378,0,0,0,737.9,1004.363Z" transform="translate(-737.897 -985.884)" fill="#c79b3f"/><line x2="69.369" y2="40.706" transform="translate(1.538 21.13)" fill="#0053cc"/></g></g><g transform="translate(0.905)"><g transform="matrix(1, 0, 0, 1, -25.5, -5.5)" filter="url(#a)"><path d="M852.565,894.8l69.357,40.043a.941.941,0,0,1,0,1.783l-109.2,63.048a3.416,3.416,0,0,1-3.089,0l-69.357-40.043a.941.941,0,0,1,0-1.783l109.2-63.048A3.412,3.412,0,0,1,852.565,894.8Z" transform="translate(-714.14 -888.93)" fill="#deb764"/></g></g><g transform="translate(22.638 56.466)"><path d="M782.052,1014.1l18.645-10.765a3.412,3.412,0,0,1,3.089,0l15.023,8.673a.941.941,0,0,1,0,1.783l-18.645,10.765a3.412,3.412,0,0,1-3.089,0l-15.022-8.673A.941.941,0,0,1,782.052,1014.1Z" transform="translate(-781.412 -1002.968)" fill="#c79b3f"/></g><g transform="translate(48.437 71.37)"><path d="M831.961,1042.044l17.1-9.873a5.117,5.117,0,0,1,4.633,0l2.611,1.508c1.279.738,1.279,1.937,0,2.675l-17.1,9.873a5.124,5.124,0,0,1-4.634,0l-2.611-1.508C830.682,1043.979,830.682,1042.782,831.961,1042.044Z" transform="translate(-831.002 -1031.616)" fill="#dbe8ff"/></g><g transform="translate(73.793 56.731)"><path d="M880.7,1013.9l17.1-9.873a5.121,5.121,0,0,1,4.634,0l2.611,1.507c1.279.74,1.279,1.937,0,2.675l-17.1,9.872a5.118,5.118,0,0,1-4.634,0l-2.61-1.507C879.422,1015.84,879.422,1014.643,880.7,1013.9Z" transform="translate(-879.742 -1003.477)" fill="#00dfbf"/></g><g transform="translate(73.793 56.731)"><path d="M880.7,1013.9l17.1-9.873a5.121,5.121,0,0,1,4.634,0l2.611,1.507c1.279.74,1.279,1.937,0,2.675l-17.1,9.872a5.118,5.118,0,0,1-4.634,0l-2.61-1.507C879.422,1015.84,879.422,1014.643,880.7,1013.9Z" transform="translate(-879.742 -1003.477)" fill="#dce9ff"/><path d="M880.7,1013.9l17.1-9.873a5.121,5.121,0,0,1,4.634,0l2.611,1.507c1.279.74,1.279,1.937,0,2.675l-17.1,9.872a5.118,5.118,0,0,1-4.634,0l-2.61-1.507C879.422,1015.84,879.422,1014.643,880.7,1013.9Z" transform="translate(-879.742 -1003.477)" fill="#dce9ff" opacity="0.7"/></g><g transform="translate(99.149 42.092)"><path d="M929.442,985.764l17.1-9.872a5.118,5.118,0,0,1,4.634,0l2.611,1.507c1.279.739,1.279,1.936,0,2.676l-17.1,9.872a5.121,5.121,0,0,1-4.634,0l-2.61-1.507C928.161,987.7,928.161,986.5,929.442,985.764Z" transform="translate(-928.481 -975.337)" fill="#dce9ff"/><path d="M929.442,985.764l17.1-9.872a5.118,5.118,0,0,1,4.634,0l2.611,1.507c1.279.739,1.279,1.936,0,2.676l-17.1,9.872a5.121,5.121,0,0,1-4.634,0l-2.61-1.507C928.161,987.7,928.161,986.5,929.442,985.764Z" transform="translate(-928.481 -975.337)" fill="#dce9ff" opacity="0.7"/></g><g transform="translate(124.504 27.453)"><path d="M978.18,957.624l17.1-9.873a5.123,5.123,0,0,1,4.633,0l2.612,1.508c1.279.738,1.279,1.937,0,2.675l-17.1,9.873a5.124,5.124,0,0,1-4.633,0L978.18,960.3C976.9,959.561,976.9,958.363,978.18,957.624Z" transform="translate(-977.221 -947.198)" fill="#dce9ff"/><path d="M978.18,957.624l17.1-9.873a5.123,5.123,0,0,1,4.633,0l2.612,1.508c1.279.738,1.279,1.937,0,2.675l-17.1,9.873a5.124,5.124,0,0,1-4.633,0L978.18,960.3C976.9,959.561,976.9,958.363,978.18,957.624Z" transform="translate(-977.221 -947.198)" fill="#dce9ff" opacity="0.7"/></g><g transform="translate(114.003 36.036)"><path d="M1004.638,963.995c.753.434.671,1.185-.182,1.678l-44,25.4a3.224,3.224,0,0,1-2.907.105c-.753-.433-.671-1.185.183-1.678l44-25.4A3.224,3.224,0,0,1,1004.638,963.995Z" transform="translate(-957.034 -963.697)" fill="#dce9ff"/><g opacity="0.1"><path d="M1004.638,963.995c.753.434.671,1.185-.182,1.678l-44,25.4a3.224,3.224,0,0,1-2.907.105c-.753-.433-.671-1.185.183-1.678l44-25.4A3.224,3.224,0,0,1,1004.638,963.995Z" transform="translate(-957.034 -963.697)" fill="#dce9ff"/></g><g transform="translate(23.108 4.187)"><path d="M1033.231,972.043c.751.434.671,1.185-.183,1.678l-28.175,16.26a3.224,3.224,0,0,1-2.906.106c-.753-.435-.671-1.186.182-1.678l28.175-16.261A3.226,3.226,0,0,1,1033.231,972.043Z" transform="translate(-1001.452 -971.745)" fill="#dce9ff"/><g opacity="0.1"><path d="M1033.231,972.043c.751.434.671,1.185-.183,1.678l-28.175,16.26a3.224,3.224,0,0,1-2.906.106c-.753-.435-.671-1.186.182-1.678l28.175-16.261A3.226,3.226,0,0,1,1033.231,972.043Z" transform="translate(-1001.452 -971.745)" fill="#dce9ff"/></g></g></g><g transform="translate(91.858 6.807)"><g style="isolation:isolate"><g clip-path="url(#c)"><g transform="translate(3.664 2.122)"><path d="M939.006,925.339a13.548,13.548,0,0,1-8.133-1.385c-2.213-1.277-3.019-3.062-2.418-4.706a11.66,11.66,0,0,0-4.375,1.385c-3.442,2-3.424,5.245.041,7.245a13.786,13.786,0,0,0,12.508,0,5.134,5.134,0,0,0,2.376-2.539m-2.418-4.706a13.145,13.145,0,0,0-7.02-1.482c-.691,1.511-.009,3.192,2.04,4.375a12.085,12.085,0,0,0,7.56,1.168c.206-1.453-.654-2.95-2.58-4.061" transform="translate(-921.511 -915.21)" fill="#dce9ff"/><path d="M935.795,915.534a4.711,4.711,0,0,1,2-2.016,12.182,12.182,0,0,1,11.038,0c3.053,1.763,3.069,4.631.036,6.394a10.033,10.033,0,0,1-3.475,1.166,12.085,12.085,0,0,1-7.56-1.168c-2.049-1.183-2.732-2.864-2.04-4.375m13.772-2.442a13.786,13.786,0,0,0-12.508,0,5.132,5.132,0,0,0-2.376,2.539c-.6,1.644.205,3.429,2.418,4.706a13.547,13.547,0,0,0,8.133,1.385,11.66,11.66,0,0,0,4.375-1.385c3.442-2,3.423-5.245-.041-7.245" transform="translate(-927.738 -911.591)" fill="#dce9ff"/></g></g></g></g></g></svg>