<svg xmlns="http://www.w3.org/2000/svg" width="124.942" height="85.658" viewBox="0 0 124.942 85.658"><g transform="translate(0 10.075)" opacity="0.27"><path d="M541.562,374.837,502.84,352.484a5.68,5.68,0,0,1,.012-9.846l74.86-41.868a5.68,5.68,0,0,1,5.668.007L622.1,323.13a5.68,5.68,0,0,1-.012,9.846l-74.86,41.869A5.68,5.68,0,0,1,541.562,374.837Z" transform="translate(-500 -300.016)" opacity="0"/><path d="M578.759,305.048a5.778,5.778,0,0,1,5.59.117l38.325,22.124c3.612,2.085,3.991,7.523.375,9.6l-74.5,41.7a5.779,5.779,0,0,1-5.59-.117l-38.325-22.125c-3.612-2.085-3.991-7.523-.374-9.6Z" transform="translate(-501.506 -303.81)" opacity="0.024"/><path d="M579.695,309.291a5.9,5.9,0,0,1,5.512.228l37.929,21.9c3.431,1.981,4.2,7.381.761,9.354l-74.131,41.538a5.9,5.9,0,0,1-5.512-.228l-37.929-21.9c-3.431-1.981-4.2-7.381-.761-9.354Z" transform="translate(-502.9 -307.571)" opacity="0.048"/><path d="M580.5,313.5a6.042,6.042,0,0,1,5.434.338L623.471,335.5c3.251,1.877,4.4,7.239,1.147,9.107l-73.767,41.373a6.042,6.042,0,0,1-5.434-.338l-37.533-21.667c-3.251-1.876-4.4-7.239-1.147-9.107Z" transform="translate(-504.168 -311.292)" opacity="0.071"/><path d="M581.177,317.659c1.421-.816,3.938-.37,5.357.449l37.137,21.438c3.07,1.772,4.608,7.1,1.534,8.861l-73.4,41.208c-1.421.816-3.937.37-5.356-.449l-37.137-21.439c-3.07-1.772-4.608-7.1-1.534-8.861Z" transform="translate(-505.299 -314.973)" opacity="0.095"/><path d="M581.7,321.779c1.338-.768,3.943-.212,5.279.56l36.741,21.21c2.889,1.668,4.813,6.954,1.92,8.615L552.6,393.206c-1.338.768-3.943.211-5.279-.56l-36.741-21.21c-2.889-1.668-4.813-6.954-1.92-8.615Z" transform="translate(-506.284 -318.609)" opacity="0.119"/><path d="M582.078,325.854c1.254-.72,3.948-.053,5.2.67l36.345,20.981c2.709,1.564,5.019,6.812,2.306,8.369l-72.675,40.878c-1.254.72-3.949.053-5.2-.67L511.709,375.1c-2.709-1.564-5.019-6.812-2.306-8.369Z" transform="translate(-507.117 -322.201)" opacity="0.143"/><path d="M582.3,329.886c1.17-.672,3.954.106,5.123.781l35.949,20.753c2.528,1.46,5.225,6.669,2.693,8.123l-72.311,40.713c-1.17.672-3.954-.106-5.123-.781l-35.949-20.753c-2.528-1.46-5.225-6.67-2.693-8.123Z" transform="translate(-507.799 -325.75)" opacity="0.167"/><path d="M582.374,333.876c1.087-.624,3.96.265,5.045.891l35.553,20.524c2.348,1.355,5.43,6.527,3.079,7.877L554.1,403.715c-1.087.624-3.96-.265-5.045-.891L513.507,382.3c-2.348-1.355-5.43-6.527-3.079-7.877Z" transform="translate(-508.331 -329.257)" opacity="0.19"/><path d="M582.306,337.827c1-.576,3.966.424,4.967,1l35.156,20.3c2.167,1.251,5.636,6.385,3.465,7.631l-71.582,40.382c-1,.576-3.966-.423-4.967-1l-35.156-20.3c-2.167-1.251-5.636-6.385-3.466-7.631Z" transform="translate(-508.722 -332.725)" opacity="0.214"/><path d="M582.1,341.742c.919-.528,3.971.582,4.889,1.112l34.76,20.067c1.987,1.147,5.841,6.243,3.852,7.385l-71.218,40.217c-.92.528-3.971-.582-4.889-1.112l-34.76-20.067c-1.987-1.147-5.841-6.242-3.852-7.385Z" transform="translate(-508.979 -336.156)" opacity="0.238"/><path d="M581.781,345.624c.836-.48,3.977.741,4.812,1.223l34.364,19.838c1.806,1.043,6.047,6.1,4.238,7.138l-70.854,40.052c-.836.48-3.977-.741-4.812-1.223l-34.364-19.838c-1.806-1.042-6.047-6.1-4.238-7.138Z" transform="translate(-509.114 -339.556)" opacity="0.262"/><path d="M581.344,349.477c.752-.432,3.982.9,4.734,1.333l33.968,19.609c1.625.938,6.252,5.958,4.625,6.892L554.181,417.2c-.752.432-3.983-.9-4.734-1.333l-33.968-19.609c-1.625-.938-6.252-5.958-4.625-6.892Z" transform="translate(-509.136 -342.925)" opacity="0.286"/><path d="M580.805,353.3c.669-.384,3.988,1.059,4.656,1.444l33.572,19.381c1.445.834,6.458,5.816,5.011,6.646L553.919,420.5c-.669.384-3.988-1.058-4.656-1.444l-33.572-19.381c-1.445-.834-6.458-5.816-5.011-6.646Z" transform="translate(-509.056 -346.268)" opacity="0.31"/><path d="M580.174,357.105c.585-.336,3.994,1.217,4.578,1.555l33.176,19.152c1.264.73,6.663,5.673,5.4,6.4l-69.761,39.557c-.585.336-3.994-1.217-4.578-1.555L515.81,403.062c-1.264-.73-6.663-5.673-5.4-6.4Z" transform="translate(-508.883 -349.587)" opacity="0.333"/><path d="M579.46,360.887c.5-.288,4,1.376,4.5,1.665l32.78,18.924c1.084.625,6.869,5.531,5.784,6.154l-69.4,39.391c-.5.288-4-1.376-4.5-1.665l-32.78-18.923c-1.084-.626-6.869-5.531-5.784-6.154Z" transform="translate(-508.628 -352.886)" opacity="0.357"/><path d="M578.671,364.649c.418-.24,4,1.535,4.422,1.776l32.384,18.695c.9.521,7.075,5.389,6.17,5.908l-69.033,39.226c-.418.24-4.005-1.535-4.422-1.776l-32.384-18.695c-.9-.521-7.075-5.389-6.17-5.908Z" transform="translate(-508.298 -356.165)" opacity="0.381"/><path d="M577.815,368.4c.334-.192,4.011,1.693,4.345,1.886l31.988,18.466c.722.417,7.28,5.247,6.557,5.662l-68.669,39.061c-.334.192-4.011-1.693-4.345-1.886L515.7,413.119c-.722-.417-7.28-5.246-6.557-5.662Z" transform="translate(-507.9 -359.429)" opacity="0.405"/><path d="M576.9,372.127c.251-.144,4.016,1.852,4.267,2l31.592,18.238c.542.313,7.486,5.1,6.943,5.416l-68.3,38.9c-.251.144-4.016-1.852-4.267-2l-31.592-18.238c-.542-.313-7.485-5.1-6.943-5.416Z" transform="translate(-507.442 -362.676)" opacity="0.429"/><path d="M575.926,375.844a42.663,42.663,0,0,1,4.189,2.107l31.2,18.009c.361.208,7.691,4.962,7.329,5.169L550.7,439.86a42.63,42.63,0,0,1-4.189-2.107l-31.2-18.009c-.361-.208-7.691-4.962-7.329-5.169Z" transform="translate(-506.929 -365.91)" opacity="0.452"/><path d="M574.906,379.549c.084-.048,4.028,2.17,4.111,2.218l30.8,17.78c.181.1,7.9,4.82,7.716,4.923l-67.576,38.566c-.084.048-4.028-2.17-4.111-2.218l-30.8-17.78c-.181-.1-7.9-4.819-7.716-4.923Z" transform="translate(-506.367 -369.132)" opacity="0.476"/><path d="M549.169,446.2l-42.539-24.557,67.212-38.4L616.38,407.8Z" transform="translate(-505.761 -372.343)" opacity="0.5"/></g><path d="M946.108,241.445c0,3.052,1.053,5.214,2.766,6.261.052.031,39.5,22.856,39.549,22.885,1.781,1,.642-1.264,3.348-2.826,5.445-3.144,9.86-10.758,9.86-17.006,0-3.09,2.856-3.115,1.107-4.146-.049-.029-39.837-22.907-39.887-22.934-1.777-.962-4.2-.785-6.883.761C950.522,227.583,946.108,235.2,946.108,241.445Z" transform="translate(-887.683 -223.085)" fill="#deb764"/><ellipse cx="13.9" cy="8.025" rx="13.9" ry="8.025" transform="matrix(0.505, -0.863, 0.863, 0.505, 94.139, 43.582)" fill="#deb764"/><g transform="translate(40.621 24.339)"><path d="M810.167,460.418v5.743a2.273,2.273,0,0,0,3.557,1.875l63.688-43.63V410.453a1.523,1.523,0,0,0-2.384-1.257L815.8,449.743A12.936,12.936,0,0,0,810.167,460.418Z" transform="translate(-810.167 -408.927)" fill="#deb764"/></g><path d="M545,313.584v-5.743a12.936,12.936,0,0,1,5.629-10.675l59.232-40.548a1.5,1.5,0,0,1,1.485-.129L571.393,233.5a1.5,1.5,0,0,0-1.492.126l-59.232,40.548a12.936,12.936,0,0,0-5.629,10.675v5.743a2.258,2.258,0,0,0,1.484,2.132l39.742,22.931.025-.023A2.247,2.247,0,0,1,545,313.584Z" transform="translate(-504.38 -232.011)" fill="#deb764"/><g transform="translate(47.531 25.888)"><path d="M868.24,833.759l1.22-.813-.278,1.327Z" transform="translate(-867.544 -778.963)" fill="#c79b3f"/><path d="M865.322,473.564v-2.517a11.456,11.456,0,0,1,4.985-9.453l54.768-40.072a1.329,1.329,0,0,1,1.315-.114l-.837-.53a1.329,1.329,0,0,0-1.321.111l-54.768,40.072a11.456,11.456,0,0,0-4.985,9.453v5.4l-.845-.382-.706.514,2.394,1.342,1.143-2.007A1.99,1.99,0,0,1,865.322,473.564Z" transform="translate(-862.928 -420.752)" fill="#c79b3f"/><g transform="translate(2.394 0.532)"><path d="M881.211,474.575v6.336l57.8-39.611a9.335,9.335,0,0,0,4.059-7.7v-7.437a1.349,1.349,0,0,0-2.111-1.113L886.2,465.122A11.456,11.456,0,0,0,881.211,474.575Z" transform="translate(-881.211 -424.811)" fill="#c79b3f"/></g></g><path d="M518.336,295.549l-.115-.043a.8.8,0,0,1-.529-.756v-5.743a11.461,11.461,0,0,1,4.99-9.462L581.914,239l.716-.406-.661-.38-1.489.844L521.248,279.6a11.461,11.461,0,0,0-4.99,9.462v5.743a.8.8,0,0,0,.529.756l.115.043L553.281,316.6v-.886Z" transform="translate(-514.129 -236.231)" fill="#c79b3f"/><path d="M835.7,301.072,861.72,283.3,829,264.244,802.778,282.16a1.65,1.65,0,0,0,.1,2.788l27.986,16.3A4.53,4.53,0,0,0,835.7,301.072Z" transform="translate(-762.499 -258.854)" fill="#c79b3f"/><path d="M833.593,393.841h0a4.047,4.047,0,0,1,4.324-.159l24.245,14.12a1.7,1.7,0,0,1,.106,2.875h0a4.44,4.44,0,0,1-4.745.175l-23.815-13.869A1.86,1.86,0,0,1,833.593,393.841Z" transform="translate(-789.201 -370.862)" fill="#b8d8ff"/><path d="M895.946,435.492l4.961-3.39a1.43,1.43,0,0,1,1.526-.055l6.016,3.5a.586.586,0,0,1,.036.991l-4.961,3.39a1.43,1.43,0,0,1-1.526.055l-6.016-3.5A.586.586,0,0,1,895.946,435.492Z" transform="translate(-843.869 -404.511)" fill="#b28830"/><path d="M556.129,647.4v-3.119l-1.027-.592v4.139l27.129,15.7v-1.023Z" transform="translate(-547.885 -588.605)" fill="#c79b3f"/><path d="M649.387,445.409l-5.147-2.953a3.239,3.239,0,0,0-3.163.15,1.087,1.087,0,0,0,.054,2l5.147,2.953a3.239,3.239,0,0,0,3.163-.15A1.087,1.087,0,0,0,649.387,445.409Zm10.122,5.807-5.147-2.953a3.239,3.239,0,0,0-3.163.15,1.087,1.087,0,0,0,.054,2l5.147,2.953a3.239,3.239,0,0,0,3.163-.15A1.087,1.087,0,0,0,659.509,451.216Zm1.866,5,5.147,2.953a3.239,3.239,0,0,0,3.163-.15,1.087,1.087,0,0,0-.054-2l-5.147-2.953a3.239,3.239,0,0,0-3.163.15A1.087,1.087,0,0,0,661.375,456.214Zm-17.317-7.129-5.147-2.953a3.239,3.239,0,0,0-3.163.15,1.087,1.087,0,0,0,.054,2l5.147,2.953a3.239,3.239,0,0,0,3.163-.15A1.087,1.087,0,0,0,644.057,449.085Zm10.122,5.807-5.147-2.953a3.239,3.239,0,0,0-3.163.15,1.087,1.087,0,0,0,.054,2l5.147,2.953a3.239,3.239,0,0,0,3.163-.15A1.087,1.087,0,0,0,654.179,454.892ZM664.3,460.7l-5.147-2.953a3.239,3.239,0,0,0-3.163.15,1.087,1.087,0,0,0,.054,2l5.147,2.953a3.239,3.239,0,0,0,3.163-.15A1.087,1.087,0,0,0,664.3,460.7Zm-25.573-7.937-5.147-2.953a3.239,3.239,0,0,0-3.163.15,1.087,1.087,0,0,0,.054,2l5.147,2.953a3.238,3.238,0,0,0,3.163-.15A1.087,1.087,0,0,0,638.728,452.762Zm10.122,5.807-5.147-2.953a3.239,3.239,0,0,0-3.163.15,1.087,1.087,0,0,0,.054,2l5.147,2.953a3.239,3.239,0,0,0,3.163-.15A1.087,1.087,0,0,0,648.85,458.569Zm10.122,5.807-5.147-2.953a3.239,3.239,0,0,0-3.163.15,1.087,1.087,0,0,0,.054,2l5.147,2.953a3.239,3.239,0,0,0,3.163-.15A1.087,1.087,0,0,0,658.972,464.376ZM633.4,456.438l-5.147-2.953a3.239,3.239,0,0,0-3.163.15,1.087,1.087,0,0,0,.054,2l5.147,2.953a3.239,3.239,0,0,0,3.163-.149A1.087,1.087,0,0,0,633.4,456.438Zm10.122,5.807-5.147-2.953a3.239,3.239,0,0,0-3.163.15,1.087,1.087,0,0,0,.054,2l5.147,2.953a3.239,3.239,0,0,0,3.163-.15A1.087,1.087,0,0,0,643.521,462.246Zm10.122,5.807L648.5,465.1a3.239,3.239,0,0,0-3.163.15,1.087,1.087,0,0,0,.054,2l5.147,2.953a3.239,3.239,0,0,0,3.163-.15A1.087,1.087,0,0,0,653.643,468.053Zm-25.573-7.938-5.147-2.953a3.239,3.239,0,0,0-3.163.15,1.087,1.087,0,0,0,.054,2l5.147,2.953a3.239,3.239,0,0,0,3.163-.15A1.087,1.087,0,0,0,628.07,460.115Zm10.122,5.807-5.147-2.953a3.239,3.239,0,0,0-3.163.15,1.087,1.087,0,0,0,.054,2l5.147,2.953a3.239,3.239,0,0,0,3.163-.15A1.087,1.087,0,0,0,638.191,465.922Zm10.122,5.807-5.147-2.953a3.239,3.239,0,0,0-3.163.15,1.087,1.087,0,0,0,.054,1.995l5.147,2.953a3.239,3.239,0,0,0,3.163-.15A1.087,1.087,0,0,0,648.313,471.729Z" transform="translate(-603.529 -413.428)" fill="#c79b3f"/><path d="M863.418,417.061v-.728l4.645-3.018.321.171-4.581,3.039v.749Z" transform="translate(-815.823 -388.402)" fill="#deb764"/><path d="M993.516,492.571v-.728l4.645-3.018.321.171-4.581,3.039v.749Z" transform="translate(-928.882 -454.022)" fill="#deb764"/><path d="M649.387,445.409l-5.147-2.953a3.239,3.239,0,0,0-3.163.15,1.087,1.087,0,0,0,.054,2l5.147,2.953a3.239,3.239,0,0,0,3.163-.15A1.087,1.087,0,0,0,649.387,445.409Zm10.122,5.807-5.147-2.953a3.239,3.239,0,0,0-3.163.15,1.087,1.087,0,0,0,.054,2l5.147,2.953a3.239,3.239,0,0,0,3.163-.15A1.087,1.087,0,0,0,659.509,451.216Zm1.866,5,5.147,2.953a3.239,3.239,0,0,0,3.163-.15,1.087,1.087,0,0,0-.054-2l-5.147-2.953a3.239,3.239,0,0,0-3.163.15A1.087,1.087,0,0,0,661.375,456.214Zm-17.317-7.129-5.147-2.953a3.239,3.239,0,0,0-3.163.15,1.087,1.087,0,0,0,.054,2l5.147,2.953a3.239,3.239,0,0,0,3.163-.15A1.087,1.087,0,0,0,644.057,449.085Zm10.122,5.807-5.147-2.953a3.239,3.239,0,0,0-3.163.15,1.087,1.087,0,0,0,.054,2l5.147,2.953a3.239,3.239,0,0,0,3.163-.15A1.087,1.087,0,0,0,654.179,454.892ZM664.3,460.7l-5.147-2.953a3.239,3.239,0,0,0-3.163.15,1.087,1.087,0,0,0,.054,2l5.147,2.953a3.239,3.239,0,0,0,3.163-.15A1.087,1.087,0,0,0,664.3,460.7Zm-25.573-7.937-5.147-2.953a3.239,3.239,0,0,0-3.163.15,1.087,1.087,0,0,0,.054,2l5.147,2.953a3.238,3.238,0,0,0,3.163-.15A1.087,1.087,0,0,0,638.728,452.762Zm10.122,5.807-5.147-2.953a3.239,3.239,0,0,0-3.163.15,1.087,1.087,0,0,0,.054,2l5.147,2.953a3.239,3.239,0,0,0,3.163-.15A1.087,1.087,0,0,0,648.85,458.569Zm10.122,5.807-5.147-2.953a3.239,3.239,0,0,0-3.163.15,1.087,1.087,0,0,0,.054,2l5.147,2.953a3.239,3.239,0,0,0,3.163-.15A1.087,1.087,0,0,0,658.972,464.376ZM633.4,456.438l-5.147-2.953a3.239,3.239,0,0,0-3.163.15,1.087,1.087,0,0,0,.054,2l5.147,2.953a3.239,3.239,0,0,0,3.163-.149A1.087,1.087,0,0,0,633.4,456.438Zm10.122,5.807-5.147-2.953a3.239,3.239,0,0,0-3.163.15,1.087,1.087,0,0,0,.054,2l5.147,2.953a3.239,3.239,0,0,0,3.163-.15A1.087,1.087,0,0,0,643.521,462.246Zm10.122,5.807L648.5,465.1a3.239,3.239,0,0,0-3.163.15,1.087,1.087,0,0,0,.054,2l5.147,2.953a3.239,3.239,0,0,0,3.163-.15A1.087,1.087,0,0,0,653.643,468.053Zm-25.573-7.938-5.147-2.953a3.239,3.239,0,0,0-3.163.15,1.087,1.087,0,0,0,.054,2l5.147,2.953a3.239,3.239,0,0,0,3.163-.15A1.087,1.087,0,0,0,628.07,460.115Zm10.122,5.807-5.147-2.953a3.239,3.239,0,0,0-3.163.15,1.087,1.087,0,0,0,.054,2l5.147,2.953a3.239,3.239,0,0,0,3.163-.15A1.087,1.087,0,0,0,638.191,465.922Zm10.122,5.807-5.147-2.953a3.239,3.239,0,0,0-3.163.15,1.087,1.087,0,0,0,.054,1.995l5.147,2.953a3.239,3.239,0,0,0,3.163-.15A1.087,1.087,0,0,0,648.313,471.729Z" transform="translate(-603.529 -415.428)" fill="#deb764"/></svg>