<svg xmlns="http://www.w3.org/2000/svg" xmlns:xlink="http://www.w3.org/1999/xlink" width="302.802" height="280.291" viewBox="0 0 302.802 280.291"><defs><filter id="a" x="0" y="91.732" width="302.802" height="188.559" filterUnits="userSpaceOnUse"><feOffset dx="31" dy="5" input="SourceAlpha"/><feGaussianBlur stdDeviation="7.5" result="b"/><feFlood flood-opacity="0.161"/><feComposite operator="in" in2="b"/><feComposite in="SourceGraphic"/></filter></defs><g transform="translate(10.187 96.217)" opacity="0.27"><path d="M1472.653,688.293l-134.591-79.747a10.123,10.123,0,0,1,.021-17.546l82.063-42.64a10.123,10.123,0,0,1,10.1.012l134.591,79.747a10.123,10.123,0,0,1-.021,17.546l-82.062,42.64A10.123,10.123,0,0,1,1472.653,688.293Z" transform="translate(-1333 -534.465)" opacity="0"/><path d="M1423.654,545.944a10.076,10.076,0,0,1,9.848.143l131.563,77.9c6.437,3.716,5.451,13.567-.995,17.268l-82.4,43.034a10.581,10.581,0,0,1-10.1.265l-131.792-78.034c-6.437-3.716-5.36-13.619,1.086-17.32Z" transform="translate(-1334.88 -532.711)" opacity="0.024"/><path d="M1426.93,543.515a10.045,10.045,0,0,1,9.6.275l128.536,76.057c6.115,3.53,4.155,13.474-1.968,16.989l-82.735,43.428c-2.831,1.625-7.282,2.175-10.109.543l-128.993-76.32c-6.115-3.53-3.974-13.578,2.15-17.093Z" transform="translate(-1336.529 -530.944)" opacity="0.048"/><path d="M1429.959,541.07c2.682-1.539,6.665-1.14,9.342.406l125.509,74.212c5.793,3.344,2.86,13.38-2.942,16.71L1478.8,676.221c-2.682,1.539-7.436,2.367-10.113.821L1342.49,602.435c-5.793-3.344-2.587-13.536,3.214-16.866Z" transform="translate(-1337.931 -529.161)" opacity="0.071"/><path d="M1432.739,538.608c2.533-1.454,6.561-.923,9.09.537l122.482,72.366c5.471,3.159,1.564,13.286-3.915,16.431l-83.408,44.217c-2.533,1.454-7.589,2.559-10.118,1.1l-123.394-72.893c-5.471-3.159-1.2-13.494,4.279-16.639Z" transform="translate(-1339.083 -527.361)" opacity="0.095"/><path d="M1435.281,536.127c2.384-1.368,6.457-.706,8.837.668l119.454,70.521c5.15,2.973.269,13.192-4.888,16.152l-83.744,44.612c-2.384,1.368-7.742,2.751-10.122,1.377l-120.6-71.18c-5.15-2.973.186-13.452,5.343-16.412Z" transform="translate(-1339.997 -525.54)" opacity="0.119"/><path d="M1437.605,533.623c2.235-1.283,6.353-.489,8.584.8L1562.616,603.1c4.828,2.787-1.027,13.1-5.861,15.873l-84.081,45.006c-2.235,1.283-7.895,2.943-10.126,1.654l-117.8-69.466c-4.828-2.787,1.573-13.41,6.408-16.185Z" transform="translate(-1340.693 -523.699)" opacity="0.143"/><path d="M1439.737,531.1c2.086-1.2,6.249-.272,8.331.931l113.4,66.831c4.506,2.6-2.323,13-6.835,15.595l-84.417,45.4c-2.086,1.2-8.048,3.135-10.131,1.932l-115-67.753c-4.506-2.6,2.96-13.368,7.472-15.958Z" transform="translate(-1341.197 -521.833)" opacity="0.167"/><path d="M1441.7,528.544c1.937-1.112,6.144-.055,8.079,1.062l110.373,64.985c4.184,2.415-3.618,12.911-7.808,15.316L1467.59,655.7c-1.937,1.112-8.2,3.327-10.135,2.211l-112.2-66.039c-4.184-2.415,4.347-13.327,8.536-15.732Z" transform="translate(-1341.533 -519.943)" opacity="0.19"/><path d="M1443.521,525.967c1.788-1.026,6.04.162,7.826,1.193l107.345,63.14c3.862,2.23-4.914,12.817-8.782,15.037l-85.09,46.189c-1.788,1.026-8.354,3.519-10.139,2.488l-109.4-64.326c-3.862-2.23,5.733-13.285,9.6-15.5Z" transform="translate(-1341.726 -518.027)" opacity="0.214"/><path d="M1445.218,523.363c1.639-.941,5.937.379,7.573,1.324l104.318,61.3c3.54,2.044-6.21,12.723-9.755,14.758l-85.427,46.584c-1.639.941-8.507,3.711-10.143,2.766l-106.6-62.612c-3.54-2.044,7.12-13.243,10.665-15.278Z" transform="translate(-1341.795 -516.086)" opacity="0.238"/><path d="M1446.811,520.734c1.49-.855,5.833.6,7.32,1.455l101.291,59.45c3.218,1.858-7.506,12.629-10.729,14.479L1458.93,643.1c-1.49.855-8.66,3.9-10.147,3.044l-103.8-60.9c-3.218-1.858,8.506-13.2,11.73-15.051Z" transform="translate(-1341.761 -514.118)" opacity="0.262"/><path d="M1448.315,518.08c1.341-.77,5.729.813,7.068,1.586l98.263,57.6c2.9,1.672-8.8,12.535-11.7,14.2l-86.1,47.372c-1.341.77-8.813,4.095-10.152,3.322l-101-59.186c-2.9-1.672,9.893-13.159,12.794-14.824Z" transform="translate(-1341.637 -512.126)" opacity="0.286"/><path d="M1449.743,515.4c1.192-.684,5.625,1.03,6.815,1.717l95.236,55.759c2.575,1.486-10.1,12.441-12.675,13.921l-86.437,47.767c-1.192.684-8.966,4.286-10.156,3.6l-98.2-57.472c-2.575-1.487,11.28-13.117,13.858-14.6Z" transform="translate(-1341.437 -510.108)" opacity="0.31"/><path d="M1451.105,512.7c1.043-.6,5.521,1.247,6.562,1.849l92.209,53.914c2.253,1.3-11.392,12.347-13.648,13.643l-86.773,48.161c-1.043.6-9.119,4.478-10.16,3.877l-95.4-55.758c-2.253-1.3,12.666-13.075,14.923-14.371Z" transform="translate(-1341.172 -508.067)" opacity="0.333"/><path d="M1452.411,509.974c.894-.513,5.416,1.465,6.309,1.98l89.181,52.069c1.931,1.115-12.688,12.254-14.621,13.364l-87.109,48.556c-.894.513-9.272,4.671-10.165,4.155l-92.6-54.045c-1.931-1.115,14.053-13.034,15.987-14.144Z" transform="translate(-1340.85 -506.005)" opacity="0.357"/><path d="M1453.668,507.23c.745-.428,5.313,1.681,6.056,2.111l86.154,50.224c1.61.929-13.983,12.16-15.6,13.085l-87.446,48.95c-.745.428-9.425,4.862-10.169,4.433L1342.863,573.7c-1.609-.929,15.44-12.992,17.051-13.917Z" transform="translate(-1340.479 -503.922)" opacity="0.381"/><path d="M1454.883,504.466c.6-.342,5.208,1.9,5.8,2.242l83.127,48.378c1.287.743-15.279,12.066-16.568,12.806l-87.782,49.345c-.6.342-9.578,5.054-10.173,4.711l-87.006-50.618c-1.287-.743,16.826-12.95,18.115-13.69Z" transform="translate(-1340.066 -501.819)" opacity="0.405"/><path d="M1456.06,501.683c.447-.257,5.1,2.116,5.551,2.373l80.1,46.533c.965.557-16.575,11.972-17.542,12.527l-88.119,49.739c-.447.257-9.731,5.246-10.177,4.988l-84.207-48.9c-.965-.558,18.213-12.908,19.18-13.463Z" transform="translate(-1339.616 -499.698)" opacity="0.429"/><path d="M1457.2,498.885c.3-.171,5,2.333,5.3,2.5l77.072,44.688c.644.372-17.871,11.878-18.515,12.248L1432.6,608.458c-.3.171-9.884,5.438-10.182,5.266l-81.408-47.191c-.644-.371,19.6-12.866,20.244-13.236Z" transform="translate(-1339.132 -497.561)" opacity="0.452"/><path d="M1458.319,496.071c.149-.086,4.9,2.549,5.045,2.635l74.045,42.843c.322.186-19.166,11.785-19.489,11.969l-88.792,50.528c-.149.086-10.037,5.63-10.186,5.544l-78.609-45.478c-.322-.186,20.987-12.824,21.309-13.009Z" transform="translate(-1338.619 -495.41)" opacity="0.476"/><path d="M1415.439,605.442l-75.81-43.764,119.78-68.435,75.81,43.764Z" transform="translate(-1338.082 -493.243)" opacity="0.5"/></g><path d="M2352.211,468.973a9.024,9.024,0,0,1,1.226,4.567l0,107.045L2356.18,579l0-107.286a9.131,9.131,0,0,0-1.119-4.383Z" transform="translate(-2104.142 -377.158)" fill="#b58a2f"/><path d="M1289.352,781.927v3.661l.128.668v.009a1.793,1.793,0,0,0,.787.906l149.645,86.387a9.118,9.118,0,0,0,4.567,1.226v-3.661a9.118,9.118,0,0,1-4.567-1.227L1290.267,783.51A1.8,1.8,0,0,1,1289.352,781.927Z" transform="translate(-1289.352 -618.332)" fill="#c79b3f"/><path d="M1954,990.191v3.661a9.116,9.116,0,0,0,4.585-1.226l89.589-51.719v-3.661l-89.589,51.718A9.113,9.113,0,0,1,1954,990.191Z" transform="translate(-1798.872 -737.4)" fill="#c79b3f"/><g transform="matrix(1, 0, 0, 1, 0, 0)" filter="url(#a)"><path d="M1289.352,603.369a1.8,1.8,0,0,0,.915,1.583l91.438,52.789,58.207,33.6a9.149,9.149,0,0,0,9.152,0l89.589-51.718-156.949-90.615-91.438,52.78A1.8,1.8,0,0,0,1289.352,603.369Z" transform="translate(-1289.35 -439.77)" fill="#deb764"/></g><path d="M1680.938,664.141l-138.892-80.2-48.654,28.087,138.9,80.2Z" transform="translate(-1445.77 -466.558)" fill="#deb764"/><path d="M1558.656,850.317a1.821,1.821,0,0,0,.869,1.126l43.409,25.063a1.819,1.819,0,0,0,1.831,0l24.076-13.871a1.167,1.167,0,0,0,0-2.252l-43.409-25.054a1.818,1.818,0,0,0-1.83,0l-24.076,13.862A1.82,1.82,0,0,0,1558.656,850.317Z" transform="translate(-1495.801 -659.08)" fill="#c79b3f"/><path d="M1597.422,965.707l-.8.469-15.633-9.1.742-.429Z" transform="translate(-1512.919 -752.275)" fill="#deb764"/><g transform="translate(54.203 120.558)"><path d="M2193.237,927.052l-7.306-4.218-7.3,4.218,7.3,4.21Z" transform="translate(-2025.279 -846.909)" fill="#c79b3f"/><path d="M2150.649,902.28l-7.306-4.217-7.3,4.217,7.3,4.21Z" transform="translate(-1992.631 -827.919)" fill="#c79b3f"/><path d="M2109.731,878.845l-7.306-4.217-7.3,4.217,7.3,4.21Z" transform="translate(-1961.263 -809.954)" fill="#c79b3f"/><path d="M2068.04,854.821l-7.306-4.218-7.3,4.218,7.3,4.21Z" transform="translate(-1929.303 -791.537)" fill="#c79b3f"/><path d="M2026.96,830.921l-7.306-4.217-7.3,4.217,7.3,4.21Z" transform="translate(-1897.811 -773.215)" fill="#c79b3f"/><path d="M1985.391,806.994l-7.306-4.217-7.3,4.217,7.3,4.21Z" transform="translate(-1865.944 -754.873)" fill="#c79b3f"/><path d="M1943.944,783.2l-7.306-4.217-7.3,4.217,7.3,4.21Z" transform="translate(-1834.171 -736.635)" fill="#c79b3f"/><path d="M1903.111,759.657l-7.306-4.217-7.3,4.217,7.3,4.21Z" transform="translate(-1802.868 -718.584)" fill="#c79b3f"/><path d="M1861.664,735.786l-7.306-4.217-7.3,4.217,7.3,4.21Z" transform="translate(-1771.095 -700.284)" fill="#c79b3f"/><path d="M1819.85,711.462l-7.306-4.217-7.3,4.217,7.3,4.21Z" transform="translate(-1739.041 -681.638)" fill="#c79b3f"/><path d="M1777.791,687.058l-7.306-4.218-7.3,4.218,7.3,4.21Z" transform="translate(-1706.797 -662.929)" fill="#c79b3f"/><path d="M1734.751,662.409l-7.306-4.217-7.3,4.217,7.3,4.21Z" transform="translate(-1673.803 -644.034)" fill="#c79b3f"/><path d="M1665.812,622.514l-15.5-8.964-7.3,4.217,15.5,8.956Z" transform="translate(-1614.673 -609.812)" fill="#c79b3f"/><path d="M2127.485,935.275l-15.106-8.737-7.3,4.218,15.1,8.729Z" transform="translate(-1968.894 -849.749)" fill="#c79b3f"/><path d="M2076.941,906.089l-7.306-4.218-7.3,4.218,7.3,4.21Z" transform="translate(-1936.127 -830.839)" fill="#c79b3f"/><path d="M2034.645,881.685l-7.306-4.217-7.3,4.217,7.3,4.21Z" transform="translate(-1903.703 -812.131)" fill="#c79b3f"/><path d="M1992.877,857.4l-7.306-4.217-7.3,4.217,7.3,4.21Z" transform="translate(-1871.683 -793.517)" fill="#c79b3f"/><path d="M1950.282,833l-7.306-4.218-7.3,4.218,7.3,4.21Z" transform="translate(-1839.03 -774.809)" fill="#c79b3f"/><path d="M1908.1,808.6l-7.306-4.217-7.3,4.217,7.3,4.21Z" transform="translate(-1806.693 -756.101)" fill="#c79b3f"/><path d="M1867.144,785.176l-7.306-4.217-7.3,4.217,7.3,4.21Z" transform="translate(-1775.295 -738.147)" fill="#c79b3f"/><path d="M1825.82,761.137l-7.306-4.218-7.3,4.218,7.3,4.21Z" transform="translate(-1743.616 -719.719)" fill="#c79b3f"/><path d="M1784.373,737.1l-7.306-4.217-7.3,4.217,7.3,4.21Z" transform="translate(-1711.844 -701.293)" fill="#c79b3f"/><path d="M1743.053,713.188l-7.306-4.217-7.3,4.217,7.3,4.21Z" transform="translate(-1680.168 -682.961)" fill="#c79b3f"/><path d="M1702.216,689.767l-7.306-4.217-7.3,4.217,7.3,4.21Z" transform="translate(-1648.862 -665.006)" fill="#c79b3f"/><path d="M1660.156,665.482l-7.306-4.218-7.3,4.218,7.3,4.21Z" transform="translate(-1616.619 -646.389)" fill="#c79b3f"/><path d="M1617.484,640.834l-7.306-4.218-7.3,4.218,7.3,4.21Z" transform="translate(-1583.907 -627.494)" fill="#c79b3f"/><path d="M2080.551,955.582l-16.922-9.77-7.3,4.217,16.919,9.763Z" transform="translate(-1931.522 -864.524)" fill="#c79b3f"/><path d="M2029.733,926.237l-7.306-4.217-7.3,4.217,7.3,4.21Z" transform="translate(-1899.937 -846.285)" fill="#c79b3f"/><path d="M1988.532,902.446l-7.306-4.217-7.3,4.217,7.3,4.21Z" transform="translate(-1868.352 -828.047)" fill="#c79b3f"/><path d="M1947.33,878.655l-7.306-4.218-7.3,4.218,7.3,4.21Z" transform="translate(-1836.767 -809.808)" fill="#c79b3f"/><path d="M1906.129,854.864l-7.306-4.218-7.3,4.218,7.3,4.21Z" transform="translate(-1805.182 -791.57)" fill="#c79b3f"/><path d="M1864.927,831.073l-7.306-4.218-7.3,4.218,7.3,4.21Z" transform="translate(-1773.597 -773.332)" fill="#c79b3f"/><path d="M1823.725,807.282l-7.306-4.217-7.3,4.217,7.3,4.21Z" transform="translate(-1742.011 -755.094)" fill="#c79b3f"/><path d="M1782.524,783.491l-7.306-4.218-7.3,4.218,7.3,4.21Z" transform="translate(-1710.426 -736.855)" fill="#c79b3f"/><path d="M1741.323,759.7l-7.306-4.218-7.3,4.218,7.3,4.21Z" transform="translate(-1678.841 -718.617)" fill="#c79b3f"/><path d="M1700.121,735.909l-7.306-4.218-7.3,4.218,7.3,4.21Z" transform="translate(-1647.256 -700.379)" fill="#c79b3f"/><path d="M1658.92,712.118l-7.306-4.217-7.3,4.217,7.3,4.21Z" transform="translate(-1615.671 -682.141)" fill="#c79b3f"/><path d="M1586.133,670.089l-16.922-9.77-7.3,4.217,16.918,9.763Z" transform="translate(-1552.5 -645.664)" fill="#c79b3f"/><path d="M2230.074,911.023l-7.306-4.217-4.471,2.6,7.3,4.21Z" transform="translate(-2055.686 -834.621)" fill="#c79b3f"/><path d="M2188.879,887.232l-7.306-4.218-4.471,2.6,7.3,4.21Z" transform="translate(-2024.105 -816.383)" fill="#c79b3f"/><path d="M2147.685,863.442l-7.306-4.218-4.471,2.6,7.3,4.21Z" transform="translate(-1992.526 -798.146)" fill="#c79b3f"/><path d="M2106.49,839.652l-7.306-4.217-4.471,2.6,7.3,4.21Z" transform="translate(-1960.946 -779.908)" fill="#c79b3f"/><path d="M2065.3,815.861l-7.306-4.217-4.471,2.6,7.3,4.21Z" transform="translate(-1929.366 -761.67)" fill="#c79b3f"/><path d="M2024.1,792.071l-7.306-4.217-4.471,2.6,7.3,4.21Z" transform="translate(-1897.787 -743.433)" fill="#c79b3f"/><path d="M1982.907,768.281l-7.306-4.217-4.471,2.6,7.3,4.21Z" transform="translate(-1866.207 -725.196)" fill="#c79b3f"/><path d="M1941.713,744.491l-7.306-4.218-4.471,2.6,7.3,4.21Z" transform="translate(-1834.627 -706.958)" fill="#c79b3f"/><path d="M1900.518,720.7l-7.306-4.218-4.471,2.6,7.3,4.21Z" transform="translate(-1803.047 -688.72)" fill="#c79b3f"/><path d="M1859.324,696.91l-7.306-4.217-4.471,2.6,7.3,4.21Z" transform="translate(-1771.468 -670.482)" fill="#c79b3f"/><path d="M1818.13,673.12l-7.306-4.218-4.471,2.6,7.3,4.21Z" transform="translate(-1739.889 -652.245)" fill="#c79b3f"/><path d="M1776.936,649.33l-7.306-4.217-4.471,2.6,7.3,4.21Z" transform="translate(-1708.309 -634.007)" fill="#c79b3f"/><path d="M1735.741,625.54l-7.306-4.217-4.471,2.6,7.3,4.21Z" transform="translate(-1676.729 -615.77)" fill="#c79b3f"/><path d="M1694.547,601.749l-7.306-4.217-4.471,2.6,7.3,4.21Z" transform="translate(-1645.149 -597.532)" fill="#c79b3f"/><path d="M2071.808,997.03l-7.306-4.217-7.3,4.217,7.3,4.21Z" transform="translate(-1932.191 -900.555)" fill="#c79b3f"/><path d="M2030.606,973.239l-7.306-4.217-7.3,4.217,7.3,4.21Z" transform="translate(-1900.606 -882.316)" fill="#c79b3f"/><path d="M1989.4,949.448l-7.306-4.218-7.3,4.218,7.3,4.21Z" transform="translate(-1869.021 -864.078)" fill="#c79b3f"/><path d="M1948.2,925.657l-7.306-4.218-7.3,4.218,7.3,4.21Z" transform="translate(-1837.436 -845.84)" fill="#c79b3f"/><path d="M1780.661,828.913l-45.772-26.429-7.3,4.217,45.768,26.421Z" transform="translate(-1679.51 -754.649)" fill="#c79b3f"/><path d="M1700.994,782.911l-7.306-4.217-7.3,4.217,7.3,4.21Z" transform="translate(-1647.925 -736.41)" fill="#c79b3f"/><path d="M1659.792,759.119l-7.306-4.217-7.3,4.217,7.3,4.21Z" transform="translate(-1616.34 -718.172)" fill="#c79b3f"/><path d="M1615.884,742l-7.306-4.217-4.59,2.661,7.3,4.21Z" transform="translate(-1584.755 -705.047)" fill="#c79b3f"/><path d="M1577.389,711.538l-7.306-4.217-7.3,4.217,7.3,4.21Z" transform="translate(-1553.169 -681.696)" fill="#c79b3f"/><path d="M1533.416,694.808l-7.306-4.218-4.526,2.569,7.3,4.21Z" transform="translate(-1521.584 -668.871)" fill="#c79b3f"/></g><path d="M1689.591,83.006a1.806,1.806,0,0,1,1.684.073L1840.9,169.466a8.957,8.957,0,0,1,3.341,3.35l2.856-1.648a9.074,9.074,0,0,0-3.45-3.532L1694.021,81.249a1.817,1.817,0,0,0-1.867.018c-.064.046-.128.082-.193.137Z" transform="translate(-1596.176 -81)" fill="#b58a2f"/><path d="M1841.976,183.427V286.882l-156.949-90.615V90.7a1.821,1.821,0,0,1,.558-1.318,1.873,1.873,0,0,1,.5-.339,1.806,1.806,0,0,1,1.684.073L1837.4,175.5a8.9,8.9,0,0,1,3.011,2.819c.119.174.229.348.329.531a.009.009,0,0,1,.009.009A9.026,9.026,0,0,1,1841.976,183.427Z" transform="translate(-1592.677 -87.031)" fill="#deb764"/><path d="M1857.608,315.528c1.265.73,2.3.133,2.3-1.328V228.9a5.1,5.1,0,0,0-2.3-3.985l-136.648-78.9c-1.265-.731-2.3-.133-2.3,1.328l0,85.3a5.1,5.1,0,0,0,2.3,3.985Z" transform="translate(-1618.456 -130.603)" fill="#ffde97"/><g transform="translate(54.203 118.558)"><path d="M2193.237,927.052l-7.306-4.218-7.3,4.218,7.3,4.21Z" transform="translate(-2025.279 -846.909)" fill="#deb764"/><path d="M2150.649,902.28l-7.306-4.217-7.3,4.217,7.3,4.21Z" transform="translate(-1992.631 -827.919)" fill="#deb764"/><path d="M2109.731,878.845l-7.306-4.217-7.3,4.217,7.3,4.21Z" transform="translate(-1961.263 -809.954)" fill="#deb764"/><path d="M2068.04,854.821l-7.306-4.218-7.3,4.218,7.3,4.21Z" transform="translate(-1929.303 -791.537)" fill="#deb764"/><path d="M2026.96,830.921l-7.306-4.217-7.3,4.217,7.3,4.21Z" transform="translate(-1897.811 -773.215)" fill="#deb764"/><path d="M1985.391,806.994l-7.306-4.217-7.3,4.217,7.3,4.21Z" transform="translate(-1865.944 -754.873)" fill="#deb764"/><path d="M1943.944,783.2l-7.306-4.217-7.3,4.217,7.3,4.21Z" transform="translate(-1834.171 -736.635)" fill="#deb764"/><path d="M1903.111,759.657l-7.306-4.217-7.3,4.217,7.3,4.21Z" transform="translate(-1802.868 -718.584)" fill="#deb764"/><path d="M1861.664,735.786l-7.306-4.217-7.3,4.217,7.3,4.21Z" transform="translate(-1771.095 -700.284)" fill="#deb764"/><path d="M1819.85,711.462l-7.306-4.217-7.3,4.217,7.3,4.21Z" transform="translate(-1739.041 -681.638)" fill="#deb764"/><path d="M1777.791,687.058l-7.306-4.218-7.3,4.218,7.3,4.21Z" transform="translate(-1706.797 -662.929)" fill="#deb764"/><path d="M1734.751,662.409l-7.306-4.217-7.3,4.217,7.3,4.21Z" transform="translate(-1673.803 -644.034)" fill="#deb764"/><path d="M1665.812,622.514l-15.5-8.964-7.3,4.217,15.5,8.956Z" transform="translate(-1614.673 -609.812)" fill="#deb764"/><path d="M2127.485,935.275l-15.106-8.737-7.3,4.218,15.1,8.729Z" transform="translate(-1968.894 -849.749)" fill="#deb764"/><path d="M2076.941,906.089l-7.306-4.218-7.3,4.218,7.3,4.21Z" transform="translate(-1936.127 -830.839)" fill="#deb764"/><path d="M2034.645,881.685l-7.306-4.217-7.3,4.217,7.3,4.21Z" transform="translate(-1903.703 -812.131)" fill="#deb764"/><path d="M1992.877,857.4l-7.306-4.217-7.3,4.217,7.3,4.21Z" transform="translate(-1871.683 -793.517)" fill="#deb764"/><path d="M1950.282,833l-7.306-4.218-7.3,4.218,7.3,4.21Z" transform="translate(-1839.03 -774.809)" fill="#deb764"/><path d="M1908.1,808.6l-7.306-4.217-7.3,4.217,7.3,4.21Z" transform="translate(-1806.693 -756.101)" fill="#deb764"/><path d="M1867.144,785.176l-7.306-4.217-7.3,4.217,7.3,4.21Z" transform="translate(-1775.295 -738.147)" fill="#deb764"/><path d="M1825.82,761.137l-7.306-4.218-7.3,4.218,7.3,4.21Z" transform="translate(-1743.616 -719.719)" fill="#deb764"/><path d="M1784.373,737.1l-7.306-4.217-7.3,4.217,7.3,4.21Z" transform="translate(-1711.844 -701.293)" fill="#deb764"/><path d="M1743.053,713.188l-7.306-4.217-7.3,4.217,7.3,4.21Z" transform="translate(-1680.168 -682.961)" fill="#deb764"/><path d="M1702.216,689.767l-7.306-4.217-7.3,4.217,7.3,4.21Z" transform="translate(-1648.862 -665.006)" fill="#deb764"/><path d="M1660.156,665.482l-7.306-4.218-7.3,4.218,7.3,4.21Z" transform="translate(-1616.619 -646.389)" fill="#deb764"/><path d="M1617.484,640.834l-7.306-4.218-7.3,4.218,7.3,4.21Z" transform="translate(-1583.907 -627.494)" fill="#deb764"/><path d="M2080.551,955.582l-16.922-9.77-7.3,4.217,16.919,9.763Z" transform="translate(-1931.522 -864.524)" fill="#deb764"/><path d="M2029.733,926.237l-7.306-4.217-7.3,4.217,7.3,4.21Z" transform="translate(-1899.937 -846.285)" fill="#deb764"/><path d="M1988.532,902.446l-7.306-4.217-7.3,4.217,7.3,4.21Z" transform="translate(-1868.352 -828.047)" fill="#deb764"/><path d="M1947.33,878.655l-7.306-4.218-7.3,4.218,7.3,4.21Z" transform="translate(-1836.767 -809.808)" fill="#deb764"/><path d="M1906.129,854.864l-7.306-4.218-7.3,4.218,7.3,4.21Z" transform="translate(-1805.182 -791.57)" fill="#deb764"/><path d="M1864.927,831.073l-7.306-4.218-7.3,4.218,7.3,4.21Z" transform="translate(-1773.597 -773.332)" fill="#deb764"/><path d="M1823.725,807.282l-7.306-4.217-7.3,4.217,7.3,4.21Z" transform="translate(-1742.011 -755.094)" fill="#deb764"/><path d="M1782.524,783.491l-7.306-4.218-7.3,4.218,7.3,4.21Z" transform="translate(-1710.426 -736.855)" fill="#deb764"/><path d="M1741.323,759.7l-7.306-4.218-7.3,4.218,7.3,4.21Z" transform="translate(-1678.841 -718.617)" fill="#deb764"/><path d="M1700.121,735.909l-7.306-4.218-7.3,4.218,7.3,4.21Z" transform="translate(-1647.256 -700.379)" fill="#deb764"/><path d="M1658.92,712.118l-7.306-4.217-7.3,4.217,7.3,4.21Z" transform="translate(-1615.671 -682.141)" fill="#deb764"/><path d="M1586.133,670.089l-16.922-9.77-7.3,4.217,16.918,9.763Z" transform="translate(-1552.5 -645.664)" fill="#deb764"/><path d="M2230.074,911.023l-7.306-4.217-4.471,2.6,7.3,4.21Z" transform="translate(-2055.686 -834.621)" fill="#deb764"/><path d="M2188.879,887.232l-7.306-4.218-4.471,2.6,7.3,4.21Z" transform="translate(-2024.105 -816.383)" fill="#deb764"/><path d="M2147.685,863.442l-7.306-4.218-4.471,2.6,7.3,4.21Z" transform="translate(-1992.526 -798.146)" fill="#deb764"/><path d="M2106.49,839.652l-7.306-4.217-4.471,2.6,7.3,4.21Z" transform="translate(-1960.946 -779.908)" fill="#deb764"/><path d="M2065.3,815.861l-7.306-4.217-4.471,2.6,7.3,4.21Z" transform="translate(-1929.366 -761.67)" fill="#deb764"/><path d="M2024.1,792.071l-7.306-4.217-4.471,2.6,7.3,4.21Z" transform="translate(-1897.787 -743.433)" fill="#deb764"/><path d="M1982.907,768.281l-7.306-4.217-4.471,2.6,7.3,4.21Z" transform="translate(-1866.207 -725.196)" fill="#deb764"/><path d="M1941.713,744.491l-7.306-4.218-4.471,2.6,7.3,4.21Z" transform="translate(-1834.627 -706.958)" fill="#deb764"/><path d="M1900.518,720.7l-7.306-4.218-4.471,2.6,7.3,4.21Z" transform="translate(-1803.047 -688.72)" fill="#deb764"/><path d="M1859.324,696.91l-7.306-4.217-4.471,2.6,7.3,4.21Z" transform="translate(-1771.468 -670.482)" fill="#deb764"/><path d="M1818.13,673.12l-7.306-4.218-4.471,2.6,7.3,4.21Z" transform="translate(-1739.889 -652.245)" fill="#deb764"/><path d="M1776.936,649.33l-7.306-4.217-4.471,2.6,7.3,4.21Z" transform="translate(-1708.309 -634.007)" fill="#deb764"/><path d="M1735.741,625.54l-7.306-4.217-4.471,2.6,7.3,4.21Z" transform="translate(-1676.729 -615.77)" fill="#deb764"/><path d="M1694.547,601.749l-7.306-4.217-4.471,2.6,7.3,4.21Z" transform="translate(-1645.149 -597.532)" fill="#deb764"/><path d="M2071.808,997.03l-7.306-4.217-7.3,4.217,7.3,4.21Z" transform="translate(-1932.191 -900.555)" fill="#deb764"/><path d="M2030.606,973.239l-7.306-4.217-7.3,4.217,7.3,4.21Z" transform="translate(-1900.606 -882.316)" fill="#deb764"/><path d="M1989.4,949.448l-7.306-4.218-7.3,4.218,7.3,4.21Z" transform="translate(-1869.021 -864.078)" fill="#deb764"/><path d="M1948.2,925.657l-7.306-4.218-7.3,4.218,7.3,4.21Z" transform="translate(-1837.436 -845.84)" fill="#deb764"/><path d="M1780.661,828.913l-45.772-26.429-7.3,4.217,45.768,26.421Z" transform="translate(-1679.51 -754.649)" fill="#deb764"/><path d="M1700.994,782.911l-7.306-4.217-7.3,4.217,7.3,4.21Z" transform="translate(-1647.925 -736.41)" fill="#deb764"/><path d="M1659.792,759.119l-7.306-4.217-7.3,4.217,7.3,4.21Z" transform="translate(-1616.34 -718.172)" fill="#deb764"/><path d="M1615.884,742l-7.306-4.217-4.59,2.661,7.3,4.21Z" transform="translate(-1584.755 -705.047)" fill="#deb764"/><path d="M1577.389,711.538l-7.306-4.217-7.3,4.217,7.3,4.21Z" transform="translate(-1553.169 -681.696)" fill="#deb764"/><path d="M1533.416,694.808l-7.306-4.218-4.526,2.569,7.3,4.21Z" transform="translate(-1521.584 -668.871)" fill="#deb764"/></g></svg>